<svg data-name="Layer 1" xmlns="http://www.w3.org/2000/svg" viewBox="0 0 560.7 198.2" focusable="false">
  <title>
    puppet-logo-white-test
  </title>
  <path d="M99.1 99.1V53.5H64.2L45.6 34.8V0H0v45.6h34.9l18.7 18.7v24.1l-18.7 18.7H0v45.6h45.6v-34.8l18.7-18.7h34.8zM15.2 15.2h15.2v15.2H15.2zm15.2 122.2H15.2v-15.2h15.2z" fill="#ffae1a"/>
  <path d="M149.6 198.2h-20.1V99.1h20.1v6c3.2-3.9 10.4-7.6 18.1-7.6 21.1 0 33 17.5 33 37.9s-12 37.7-33 37.7c-7.8 0-14.9-3.7-18.1-7.6v32.7zm0-51a15.23 15.23 0 0013.6 8.4c10.9 0 17.3-8.7 17.3-20.2 0-11.7-6.5-20.4-17.3-20.4a15.37 15.37 0 00-13.6 8.4zm124 24.3h-20.1v-6.6a26.24 26.24 0 01-19.4 8.3c-16.2 0-25.4-10.7-25.4-26.7V99.2h20.1v43.2c0 7.6 3.7 12.8 11.7 12.8 6.2 0 11.5-3.7 13-10v-46h20.2v72.3zm33.4 26.7h-20.1V99.1H307v6c3.2-3.9 10.4-7.6 18.1-7.6 21.1 0 33 17.5 33 37.9s-12 37.7-33 37.7c-7.8 0-14.9-3.7-18.1-7.6v32.7zm0-51a15.23 15.23 0 0013.6 8.4c10.9 0 17.3-8.7 17.3-20.2 0-11.7-6.5-20.4-17.3-20.4a15.37 15.37 0 00-13.6 8.4zm80 51h-20.1V99.1H387v6c3.2-3.9 10.4-7.6 18.1-7.6 21.1 0 33 17.5 33 37.9s-12 37.7-33 37.7c-7.8 0-14.9-3.7-18.1-7.6v32.7zm0-51a15.23 15.23 0 0013.6 8.4c10.9 0 17.3-8.7 17.3-20.2 0-11.7-6.5-20.4-17.3-20.4a15.37 15.37 0 00-13.6 8.4zm123.2.6c-2.6 15.4-13.9 25.3-32.1 25.3-21.1 0-35.1-15.4-35.1-37.7 0-21.9 14.6-37.9 34.8-37.9 21.2 0 32.9 14.7 32.9 36v6.2h-48.3c.6 10.9 6.8 17.3 15.7 17.3 6.8 0 11.8-2.9 13.4-9.1h18.7zm-47.3-20.4h28c-.2-7.6-4.7-13.6-13-13.6-7.7 0-13.2 4.7-15 13.6zm60.9-12.1h-11V99.1h11V79.5h19.9v19.6h15.9v16.2h-15.9V147c0 5.7 3.1 8.3 8.3 8.3a17.36 17.36 0 008.7-2.4v17.8c-2.8 1.5-7.6 2.3-13 2.3-14.7 0-24-7.3-24-23.3v-34.4z" fill="#fff"/>
</svg>
