<svg version="1.1" id="Layer_1" xmlns="http://www.w3.org/2000/svg" x="0" y="0" viewBox="0 0 40 40" xml:space="preserve"><style>.st0{fill:#fdfdfd}</style><path class="st0" d="M40 40H0V0h40v40zM1.9 38.1h36.2V1.9H1.9v36.2z"/><path class="st0" d="M24 18.4c.1.6.2 1.2.2 1.8 0 5-3.4 8.6-8.4 8.6-4.9 0-8.8-3.9-8.8-8.8s3.9-8.8 8.8-8.8c2.4 0 4.4.9 5.9 2.3L19.1 16c-.9-.9-2.1-1.3-3.4-1.3-2.9 0-5.3 2.5-5.3 5.4 0 2.9 2.4 5.4 5.3 5.4 2.6 0 4.4-1.5 4.8-3.6h-4.8v-3.4H24zm6.6.5v-2.7h-2.2v2.7h-2.7v2.2h2.7v2.7h2.2v-2.7h2.7v-2.2h-2.7z"/></svg>