<svg version="1.1" id="Layer_1" xmlns="http://www.w3.org/2000/svg" x="0" y="0" viewBox="0 0 40 40" xml:space="preserve"><style>.st0{fill:#dedede}</style><path class="st0" d="M40 40H0V0h40v40zM1.9 38.1h36.2V1.9H1.9v36.2z"/><path class="st0" d="M31.3 12.3c-.9.4-1.8.6-2.7.8 1-.6 1.7-1.5 2.1-2.6-.9.5-1.9.9-3 1.2-.9-.9-2.1-1.5-3.5-1.5-2.6 0-4.8 2.1-4.8 4.8 0 .4 0 .7.1 1.1-4-.2-7.5-2.1-9.8-5-.5.5-.7 1.3-.7 2.2 0 1.7.9 3.1 2.2 4-.8 0-2.1-.2-2.1-.6v.1c0 2.3 1.6 4.2 3.8 4.7-.4.1-.8.2-1.3.2-.3 0-.6 0-.9-.1.6 1.9 2.4 3.3 4.5 3.3-1.6 1.3-3.7 2-5.9 2-.4 0-.8 0-1.1-.1 2.1 1.4 4.6 2.1 7.3 2.1 8.8 0 13.6-7.3 13.6-13.6v-.6c.7-.6 1.5-1.5 2.2-2.4"/></svg>