<svg version="1.1" id="Layer_1" xmlns="http://www.w3.org/2000/svg" x="0" y="0" viewBox="0 0 40 40" xml:space="preserve"><style>.st0{fill:#fdfdfd}</style><path class="st0" d="M40 40H0V0h40v40zM1.9 38.1h36.2V1.9H1.9v36.2z"/><path class="st0" d="M33 14.5c0-2.3-1.7-4.2-3.8-4.2-2.9-.1-5.8-.2-8.7-.2h-1c-3 0-5.9.1-8.7.2-2.1 0-3.8 1.9-3.8 4.2-.1 1.8-.2 3.7-.2 5.5 0 1.8.1 3.7.2 5.5 0 2.3 1.7 4.2 3.8 4.2 3 .1 6.1.2 9.2.2 3.1 0 6.2-.1 9.2-.2 2.1 0 3.8-1.9 3.8-4.2.1-1.8.2-3.7.2-5.5 0-1.8-.1-3.7-.2-5.5zM17.5 25V14.9L25 20l-7.5 5z"/></svg>